<svg xmlns="http://www.w3.org/2000/svg" height="35px" width="35px" viewBox="0 0 512 640" x="0px" y="0px"><defs><style>.cls-1{stroke-width:0px;}</style></defs><path class="cls-1" d="m218.08,319.88c2.84,5.02,8.16,8.12,13.92,8.12h19.74l-9.46,15.77c-4.55,7.58-2.09,17.41,5.49,21.95,2.58,1.55,5.42,2.28,8.22,2.28,5.44,0,10.74-2.77,13.74-7.77l24-40c2.97-4.94,3.04-11.1.2-16.12-2.84-5.02-8.16-8.12-13.92-8.12h-19.74l9.46-15.77c4.55-7.58,2.09-17.41-5.49-21.95-7.58-4.55-17.41-2.09-21.95,5.49l-24,40c-2.97,4.94-3.04,11.1-.2,16.12Z"/><path class="cls-1" d="m496,64h-32v-16c0-8.84-7.16-16-16-16s-16,7.16-16,16v16h-72c-4.24,0-8.31,1.69-11.31,4.69l-11.31,11.31h-162.75l-11.31-11.31c-3-3-7.07-4.69-11.31-4.69h-72v-16c0-8.84-7.16-16-16-16s-16,7.16-16,16v16H16c-8.84,0-16,7.16-16,16v80c0,8.84,7.16,16,16,16v288c0,8.84,7.16,16,16,16h448c8.84,0,16-7.16,16-16V176c8.84,0,16-7.16,16-16v-80c0-8.84-7.16-16-16-16ZM32,96h113.37l11.31,11.31c3,3,7.07,4.69,11.31,4.69h176c4.24,0,8.31-1.69,11.31-4.69l11.31-11.31h113.37v48H32v-48Zm432,288H48v-144h416v144ZM48,448v-32h416v32H48Zm416-240H48v-32h416v32Z"/><text x="0" y="527" fill="#000000" font-size="5px" font-weight="bold" font-family="'Helvetica Neue', Helvetica, Arial-Unicode, Arial, Sans-serif"></text><text x="0" y="532" fill="#000000" font-size="5px" font-weight="bold" font-family="'Helvetica Neue', Helvetica, Arial-Unicode, Arial, Sans-serif"></text></svg>