<svg xmlns="http://www.w3.org/2000/svg" xmlns:xlink="http://www.w3.org/1999/xlink" version="1.1" x="0px" y="0px" viewBox="0 0 90 112.5" enable-background="new 0 0 90 90" xml:space="preserve"><g><rect x="21.1" y="45%" width="45%" height="5.8"/><path d="M78.1,23.9h-9.7v-5.8H52.6v5.8H36.8v-5.8H20.9v5.8h-9.5c-1.4,0-2,1.2-2,2.6v38.8c0,1.4,0.6,3.3,2,3.3h66.7   c1.4,0,3.3-1.7,3.3-3.3V26.5C81.6,25,79.7,23.9,78.1,23.9z M75.8,62.8H15.3V29.7h60.5V62.8z"/><polygon points="58.5,52.7 64.3,52.7 64.3,46.9 70.1,46.9 70.1,41.2 64.3,41.2 64.3,35.4 58.5,35.4 58.5,41.2 52.8,41.2 52.8,46.9    58.5,46.9  "/></g></svg>